#!OML:ASF H:\Dans Jumps\Project 1\Capture day 1\Session 1\subject.ASF
:FULLY-SPECIFIED
:DEGREES
457
root 0.267167 17.6271 -3.16281 9.3195 -0.273607 -1.49679
lowerback 3.20907 -0.174489 -0.507091
upperback 3.76394 -0.265624 1.73802
thorax 2.07631 -0.169783 2.0729
lowerneck -13.4609 -0.00637751 -1.67436
upperneck 32.9636 0.135695 0.929553
head 13.3145 -0.0280617 0.678993
rclavicle -2.98177e-016 -2.18663e-014
rhumerus -27.1261 -17.6161 -78.4443
rradius 21.5953
rwrist 37.7911
rhand -19.3106 -26.3587
rfingers 7.12502
rthumb 7.00537 -56.2228
lclavicle -2.98177e-016 -2.18663e-014
lhumerus -26.1006 1.66236 87.9294
lradius 14.8018
lwrist 6.70641
lhand -26.2139 -5.4289
lfingers 7.12502
lthumb 0.339184 24.5506
rfemur -23.1479 -1.26964 19.9644
rtibia 28.0479
rfoot -13.1044 -0.117558
rtoes 15.2373
lfemur -22.1595 7.0156 -17.3467
ltibia 26.2021
lfoot -10.0037 3.8115
ltoes 1.19445
458
root 0.26769 17.6293 -3.15136 9.31415 -0.240819 -1.49834
lowerback 3.17565 -0.188247 -0.47876
upperback 3.7476 -0.283332 1.73149
thorax 2.07864 -0.177757 2.05037
lowerneck -13.4488 -0.00840287 -1.70009
upperneck 32.9924 0.14495 0.914866
head 13.3242 -0.0293266 0.679306
rclavicle 8.94531e-016 -5.76476e-015
rhumerus -27.0256 -17.4114 -78.5683
rradius 21.6958
rwrist 37.5974
rhand -19.2957 -26.3924
rfingers 7.12502
rthumb 7.0197 -56.256
lclavicle 8.94531e-016 -5.76476e-015
lhumerus -26.0109 1.62716 88.0351
lradius 14.836
lwrist 6.69953
lhand -26.1835 -5.43086
lfingers 7.12502
lthumb 0.368489 24.5486
rfemur -23.0536 -1.26685 19.9609
rtibia 27.9707
rfoot -13.107 -0.126078
rtoes 15.2423
lfemur -22.0686 7.0261 -17.3456
ltibia 26.1122
lfoot -10.0104 3.77172
ltoes 1.23404
459
root 0.268431 17.6315 -3.14013 9.30872 -0.19891 -1.49876
lowerback 3.14363 -0.203452 -0.448771
upperback 3.73049 -0.302959 1.72654
thorax 2.07944 -0.186658 2.02854
lowerneck -13.4417 -0.00868699 -1.72778
upperneck 33.0256 0.156562 0.902849
head 13.3368 -0.0294615 0.681421
rclavicle -4.07509e-015 -1.05356e-014
rhumerus -26.9275 -17.2138 -78.6837
rradius 21.7929
rwrist 37.4071
rhand -19.2883 -26.4232
rfingers 7.12502
rthumb 7.02683 -56.2865
lclavicle -4.07509e-015 -1.05356e-014
lhumerus -25.9252 1.59474 88.1451
lradius 14.8848
lwrist 6.71175
lhand -26.1533 -5.4487
lfingers 7.12502
lthumb 0.397693 24.5307
rfemur -22.9595 -1.27008 19.9558
rtibia 27.8944
rfoot -13.1089 -0.136556
rtoes 15.2532
lfemur -21.9822 7.03738 -17.347
ltibia 26.0267
lfoot -10.0208 3.72296
ltoes 1.26739
460
root 0.269488 17.6338 -3.1288 9.30176 -0.150423 -1.49337
lowerback 3.10866 -0.21881 -0.421274
upperback 3.71493 -0.322866 1.72113
thorax 2.0835 -0.195782 2.00762
lowerneck -13.44 -0.00929596 -1.74793
upperneck 33.0602 0.167709 0.885007
head 13.3513 -0.0296162 0.679879
rclavicle -3.97569e-016 -6.95746e-015
rhumerus -26.8294 -17.0395 -78.7875
rradius 21.8836
rwrist 37.2226
rhand -19.2967 -26.4421
rfingers 7.12502
rthumb 7.01878 -56.3057
lclavicle -3.97569e-016 -6.95746e-015
lhumerus -25.8407 1.54943 88.2639
lradius 14.9446
lwrist 6.75836
lhand -26.1294 -5.47771
lfingers 7.12502
lthumb 0.420723 24.5016
rfemur -22.8622 -1.28455 19.9445
rtibia 27.8177
rfoot -13.1118 -0.145345
rtoes 15.2587
lfemur -21.8938 7.04816 -17.3564
ltibia 25.9397
lfoot -10.0313 3.66786
ltoes 1.29203
461
root 0.270788 17.6363 -3.11733 9.29478 -0.0984417 -1.4832
lowerback 3.06746 -0.233881 -0.398423
upperback 3.70135 -0.342545 1.71668
thorax 2.09311 -0.204964 1.99026
lowerneck -13.4389 -0.00981609 -1.76664
upperneck 33.0923 0.178668 0.867081
head 13.3648 -0.0296552 0.67801
rclavicle -9.93923e-016 1.49089e-014
rhumerus -26.7309 -16.8813 -78.8806
rradius 21.9699
rwrist 37.0391
rhand -19.3229 -26.4444
rfingers 7.12502
rthumb 6.99345 -56.3088
lclavicle -9.93923e-016 1.49089e-014
lhumerus -25.756 1.48137 88.3961
lradius 15.0179
lwrist 6.84766
lhand -26.1174 -5.50024
lfingers 7.12502
lthumb 0.43235 24.4791
rfemur -22.762 -1.30412 19.9275
rtibia 27.7381
rfoot -13.115 -0.15563
rtoes 15.2657
lfemur -21.8033 7.05964 -17.3721
ltibia 25.8471
lfoot -10.0394 3.6064
ltoes 1.31603
462
root 0.272324 17.6389 -3.10567 9.28649 -0.0457922 -1.47085
lowerback 3.01945 -0.247089 -0.378065
upperback 3.6906 -0.359888 1.71331
thorax 2.10938 -0.213107 1.97534
lowerneck -13.435 -0.0124949 -1.77856
upperneck 33.1176 0.186139 0.844406
head 13.3749 -0.0309369 0.672497
rclavicle 2.28602e-015 5.1684e-015
rhumerus -26.6337 -16.7393 -78.963
rradius 22.0514
rwrist 36.8524
rhand -19.3717 -26.4337
rfingers 7.12502
rthumb 6.94631 -56.2997
lclavicle 2.28602e-015 5.1684e-015
lhumerus -25.6685 1.39551 88.5387
lradius 15.1015
lwrist 6.97212
lhand -26.1103 -5.51537
lfingers 7.12502
lthumb 0.439248 24.4639
rfemur -22.6561 -1.32598 19.9076
rtibia 27.6528
rfoot -13.1183 -0.166851
rtoes 15.2692
lfemur -21.7076 7.07067 -17.391
ltibia 25.7466
lfoot -10.0425 3.54278
ltoes 1.34064
463
root 0.273964 17.6417 -3.09398 9.27785 0.00587207 -1.46077
lowerback 2.96439 -0.258294 -0.358735
upperback 3.6826 -0.374724 1.71311
thorax 2.13236 -0.220119 1.96417
lowerneck -13.4301 -0.0168747 -1.7898
upperneck 33.1389 0.190724 0.822336
head 13.3831 -0.0332716 0.666637
rclavicle 3.18055e-015 4.77083e-015
rhumerus -26.5394 -16.5899 -79.0423
rradius 22.1403
rwrist 36.6358
rhand -19.4191 -26.4308
rfingers 7.12502
rthumb 6.90061 -56.2983
lclavicle 3.18055e-015 4.77083e-015
lhumerus -25.5814 1.29081 88.6919
lradius 15.1987
lwrist 7.12179
lhand -26.1174 -5.51585
lfingers 7.12502
lthumb 0.432333 24.4635
rfemur -22.5453 -1.3438 19.8897
rtibia 27.5589
rfoot -13.1181 -0.183115
rtoes 15.2749
lfemur -21.609 7.0852 -17.4082
ltibia 25.6388
lfoot -10.0413 3.47553
ltoes 1.3682
464
root 0.275658 17.6448 -3.08242 9.26804 0.0576349 -1.4553
lowerback 2.90673 -0.267586 -0.339559
upperback 3.67509 -0.387133 1.71748
thorax 2.15727 -0.225997 1.95774
lowerneck -13.4154 -0.0244521 -1.79897
upperneck 33.1513 0.190379 0.798659
head 13.3853 -0.0376356 0.658945
rclavicle -1.59028e-015 1.15295e-014
rhumerus -26.4529 -16.4274 -79.117
rradius 22.2357
rwrist 36.3868
rhand -19.4678 -26.4318
rfingers 7.12502
rthumb 6.85354 -56.3009
lclavicle -1.59028e-015 1.15295e-014
lhumerus -25.4993 1.16051 88.8576
lradius 15.3081
lwrist 7.29125
lhand -26.1293 -5.53277
lfingers 7.12502
lthumb 0.420873 24.4466
rfemur -22.4281 -1.35573 19.8762
rtibia 27.4546
rfoot -13.1123 -0.207169
rtoes 15.2793
lfemur -21.5077 7.09932 -17.42
ltibia 25.5255
lfoot -10.0339 3.40696
ltoes 1.40323
465
root 0.277398 17.6481 -3.07108 9.25657 0.111606 -1.45774
lowerback 2.84997 -0.275519 -0.315337
upperback 3.66694 -0.397749 1.7261
thorax 2.18094 -0.230903 1.95284
lowerneck -13.3959 -0.0324473 -1.80771
upperneck 33.1624 0.187931 0.778734
head 13.386 -0.0423387 0.652319
rclavicle 5.96354e-016 9.54166e-015
rhumerus -26.3731 -16.2558 -79.1885
rradius 22.3336
rwrist 36.1115
rhand -19.5023 -26.4463
rfingers 7.12502
rthumb 6.82027 -56.3165
lclavicle 5.96354e-016 9.54166e-015
lhumerus -25.4242 1.00313 89.0332
lradius 15.427
lwrist 7.46925
lhand -26.1516 -5.55297
lfingers 7.12502
lthumb 0.399346 24.4264
rfemur -22.3035 -1.36326 19.8711
rtibia 27.339
rfoot -13.1025 -0.238145
rtoes 15.2828
lfemur -21.4051 7.11061 -17.4222
ltibia 25.4106
lfoot -10.0249 3.33896
ltoes 1.44465
466
root 0.27928 17.6515 -3.06003 9.24397 0.169665 -1.46683
lowerback 2.7948 -0.283193 -0.285964
upperback 3.65712 -0.408021 1.73843
thorax 2.20198 -0.235537 1.94883
lowerneck -13.3696 -0.0416761 -1.8154
upperneck 33.1721 0.182276 0.761588
head 13.3847 -0.0479191 0.646094
rclavicle 1.49089e-015 -1.11319e-014
rhumerus -26.3022 -16.0871 -79.2527
rradius 22.4333
rwrist 35.8283
rhand -19.5203 -26.4603
rfingers 7.12502
rthumb 6.80287 -56.331
lclavicle 1.49089e-015 -1.11319e-014
lhumerus -25.3566 0.821384 89.216
lradius 15.5497
lwrist 7.64309
lhand -26.1861 -5.6039
lfingers 7.12502
lthumb 0.365989 24.3755
rfemur -22.1726 -1.37314 19.8735
rtibia 27.2131
rfoot -13.0885 -0.272107
rtoes 15.2792
lfemur -21.3023 7.11456 -17.4164
ltibia 25.2963
lfoot -10.0155 3.27456
ltoes 1.50104
467
root 0.281252 17.655 -3.04937 9.238 0.220513 -1.48566
lowerback 2.73309 -0.28669 -0.249147
upperback 3.64541 -0.412756 1.75321
thorax 2.2245 -0.237253 1.94309
lowerneck -13.3445 -0.0494694 -1.8274
upperneck 33.186 0.176079 0.755932
head 13.3853 -0.0527654 0.645108
rclavicle -7.45443e-015 3.57812e-015
rhumerus -26.2291 -15.9245 -79.3136
rradius 22.5233
rwrist 35.5487
rhand -19.5132 -26.517
rfingers 7.12502
rthumb 6.8098 -56.3875
lclavicle -7.45443e-015 3.57812e-015
lhumerus -25.2876 0.611116 89.4031
lradius 15.6715
lwrist 7.81018
lhand -26.2231 -5.66961
lfingers 7.12502
lthumb 0.330248 24.3099
rfemur -22.0471 -1.37665 19.8857
rtibia 27.0782
rfoot -13.0691 -0.303294
rtoes 15.287
lfemur -21.2077 7.11472 -17.4005
ltibia 25.1848
lfoot -10.0045 3.2227
ltoes 1.56541
468
root 0.283457 17.6585 -3.03896 9.22944 0.275021 -1.51013
lowerback 2.67522 -0.289503 -0.206098
upperback 3.63349 -0.416565 1.76975
thorax 2.24459 -0.238359 1.93568
lowerneck -13.3295 -0.0573089 -1.83932
upperneck 33.2115 0.167242 0.758475
head 13.3933 -0.0577273 0.647051
rclavicle 3.77691e-015 -6.95746e-015
rhumerus -26.1621 -15.7866 -79.3639
rradius 22.6072
rwrist 35.3024
rhand -19.509 -26.5565
rfingers 7.12502
rthumb 6.81386 -56.4269
lclavicle 3.77691e-015 -6.95746e-015
lhumerus -25.2223 0.377334 89.5935
lradius 15.7932
lwrist 7.96816
lhand -26.2258 -5.64097
lfingers 7.12502
lthumb 0.327698 24.3385
rfemur -21.9156 -1.38841 19.9041
rtibia 26.9365
rfoot -13.0485 -0.328417
rtoes 15.303
lfemur -21.1109 7.10203 -17.3774
ltibia 25.0754
lfoot -9.99221 3.18229
ltoes 1.62623
469
root 0.28584 17.6621 -3.0288 9.22159 0.327244 -1.5387
lowerback 2.61811 -0.290735 -0.160376
upperback 3.62111 -0.418306 1.78719
thorax 2.26368 -0.23837 1.92767
lowerneck -13.322 -0.0656238 -1.85507
upperneck 33.2449 0.155229 0.771909
head 13.4063 -0.0631561 0.653552
rclavicle 4.37326e-015 -4.96962e-015
rhumerus -26.0979 -15.6735 -79.4052
rradius 22.6813
rwrist 35.0994
rhand -19.5001 -26.5976
rfingers 7.12502
rthumb 6.82238 -56.4677
lclavicle 4.37326e-015 -4.96962e-015
lhumerus -25.1577 0.124891 89.7826
lradius 15.9134
lwrist 8.09127
lhand -26.1802 -5.49151
lfingers 7.12502
lthumb 0.371689 24.4879
rfemur -21.7834 -1.40613 19.9271
rtibia 26.7897
rfoot -13.0255 -0.344484
rtoes 15.3295
lfemur -21.0148 7.08103 -17.3495
ltibia 24.9663
lfoot -9.97794 3.15396
ltoes 1.68834
470
root 0.288366 17.6658 -3.01881 9.21181 0.37795 -1.56745
lowerback 2.56345 -0.291746 -0.117244
upperback 3.60923 -0.419838 1.80549
thorax 2.28195 -0.238347 1.92202
lowerneck -13.3219 -0.0744548 -1.87451
upperneck 33.2848 0.140925 0.793277
head 13.4238 -0.0690427 0.663553
rclavicle 1.09332e-015 -7.15625e-015
rhumerus -26.0367 -15.5869 -79.4355
rradius 22.7426
rwrist 34.9529
rhand -19.4978 -26.6197
rfingers 7.12502
rthumb 6.82464 -56.4897
lclavicle 1.09332e-015 -7.15625e-015
lhumerus -25.0933 -0.135171 89.9664
lradius 16.0315
lwrist 8.1686
lhand -26.0787 -5.2039
lfingers 7.12502
lthumb 0.469724 24.7753
rfemur -21.6487 -1.43028 19.9503
rtibia 26.6399
rfoot -12.9999 -0.35261
rtoes 15.363
lfemur -20.9139 7.05251 -17.3208
ltibia 24.8534
lfoot -9.9601 3.13469
ltoes 1.74368
